# xmcd
#
# Track frame offsets:
#	182
#	25577
#	48865
#	77645
#	99735
#	120660
#	147960
#	170015
#	194242
#	218587
#	243160
#
# Disc length: 3516 seconds
#
# Revision: 4
# Processed by: cddbd v1.5.2PL0 Copyright (c) Steve Scherf et al.
# Submitted via: EasyCDDAExtractor 15.2.0.1
#
DISCID=930dba0b
DTITLE=Keith Washington - 1993 You Make It Easy
DYEAR=1993
DGENRE=R&B
TTITLE0=Let Me Make Love To You (Duet With Letitia Body)
TTITLE1=Stay In My Corner
TTITLE2=Don't Leave Me In The Dark
TTITLE3=You Always Gotta Go
TTITLE4=What It Takes
TTITLE5=We Need To Talk /Before I Let Go
TTITLE6=Trippin'
TTITLE7=Do What You Like
TTITLE8=Believe That
TTITLE9=No One
TTITLE10=You Make It Easy
EXTD=YEAR: 1993
EXTT0=
EXTT1=
EXTT2=
EXTT3=
EXTT4=
EXTT5=
EXTT6=
EXTT7=
EXTT8=
EXTT9=
EXTT10=
PLAYORDER=
